<mxfile host="app.diagrams.net" modified="2024-01-11T11:26:43.824Z" agent="Mozilla/5.0 (Windows NT 10.0; Win64; x64) AppleWebKit/537.36 (KHTML, like Gecko) Chrome/118.0.0.0 YaBrowser/23.11.0.0 Safari/537.36" etag="UDVoX6PSKi943MijOqd-" version="22.1.18" type="github">
  <diagram name="Страница — 1" id="qsabZyMixuR6BseSu_nm">
    <mxGraphModel dx="1050" dy="567" grid="1" gridSize="10" guides="1" tooltips="1" connect="1" arrows="1" fold="1" page="1" pageScale="1" pageWidth="827" pageHeight="1169" math="0" shadow="0">
      <root>
        <mxCell id="0" />
        <mxCell id="1" parent="0" />
        <mxCell id="w7tnQ7XDSmEHpIKaVpb0-1" value="" style="rounded=0;whiteSpace=wrap;html=1;" vertex="1" parent="1">
          <mxGeometry x="190" y="120" width="190" height="170" as="geometry" />
        </mxCell>
        <mxCell id="w7tnQ7XDSmEHpIKaVpb0-2" value="TelegramBot" style="whiteSpace=wrap;html=1;" vertex="1" parent="1">
          <mxGeometry x="190" y="100" width="90" height="20" as="geometry" />
        </mxCell>
        <mxCell id="w7tnQ7XDSmEHpIKaVpb0-3" value="" style="rounded=0;whiteSpace=wrap;html=1;" vertex="1" parent="1">
          <mxGeometry x="510" y="120" width="190" height="170" as="geometry" />
        </mxCell>
        <mxCell id="w7tnQ7XDSmEHpIKaVpb0-4" value="Data base" style="whiteSpace=wrap;html=1;" vertex="1" parent="1">
          <mxGeometry x="510" y="100" width="90" height="20" as="geometry" />
        </mxCell>
        <mxCell id="w7tnQ7XDSmEHpIKaVpb0-5" value="" style="rounded=0;whiteSpace=wrap;html=1;" vertex="1" parent="1">
          <mxGeometry x="319" y="340" width="190" height="170" as="geometry" />
        </mxCell>
        <mxCell id="w7tnQ7XDSmEHpIKaVpb0-6" value="User" style="whiteSpace=wrap;html=1;" vertex="1" parent="1">
          <mxGeometry x="319" y="320" width="90" height="20" as="geometry" />
        </mxCell>
      </root>
    </mxGraphModel>
  </diagram>
</mxfile>
